<svg width="190" height="166" viewBox="0 0 190 166" fill="none" xmlns="http://www.w3.org/2000/svg">
<path d="M132.877 163.531L129.996 163.53L128.625 152.418L132.878 152.418L132.877 163.531Z" fill="#FFB6B6"/>
<path d="M123.004 163.465C122.915 163.616 122.867 164.104 122.867 164.28C122.867 164.82 123.305 165.258 123.845 165.258H132.769C133.137 165.258 133.436 164.959 133.436 164.59V164.219C133.436 164.219 133.877 163.103 132.968 161.727C132.968 161.727 131.839 162.804 130.151 161.116L129.653 160.215L126.05 162.849L124.053 163.095C123.616 163.149 123.229 163.087 123.004 163.465Z" fill="#2F2E41"/>
<path d="M163.293 159.928L160.66 161.098L154.893 151.501L158.779 149.773L163.293 159.928Z" fill="#FFB6B6"/>
<path d="M154.246 163.878C154.225 164.052 154.38 164.517 154.452 164.678C154.671 165.171 155.249 165.393 155.743 165.174L163.897 161.549C164.233 161.4 164.385 161.006 164.235 160.669L164.084 160.329C164.084 160.329 164.034 159.13 162.644 158.242C162.644 158.242 162.05 159.685 159.822 158.829L159.001 158.207L156.779 162.078L155.054 163.114C154.677 163.34 154.298 163.441 154.246 163.878Z" fill="#2F2E41"/>
<path d="M126.613 93.998L124.051 99.3772L128.406 155.218H133.853L136.092 118.588L155.639 155.218H162.32L152.231 129.09L145.314 95.0226L126.613 93.998Z" fill="#090548"/>
<path d="M140.331 59.502H133.576L131.098 63.3889L125.51 66.0612L126.725 82.8237L126.115 95.0457L126.95 95.0213C132.912 94.8474 138.871 95.817 144.404 98.0444C145.823 98.6158 147.311 98.9346 148.592 98.6144C148.592 98.6144 148.106 96.671 147.62 96.1851C147.134 95.6992 146.891 95.2975 147.134 95.0125C147.377 94.7275 147.863 94.4846 147.377 93.9987C146.891 93.5128 146.891 92.9007 146.891 92.9007L145.433 82.0949L148.349 66.79L142.275 63.3889L140.331 59.502Z" fill="#108864"/>
<path d="M151.94 80.6935L151.755 95.0294L148.188 107.809L145.336 106.745L146.602 95.0315L146.436 79.1797L151.94 80.6935Z" fill="#FFB6B6"/>
<path d="M148.175 109.869C148.509 108.031 147.896 106.38 146.805 106.182C145.714 105.983 144.558 107.312 144.223 109.149C143.888 110.987 144.502 112.638 145.593 112.836C146.684 113.035 147.84 111.706 148.175 109.869Z" fill="#FFB6B6"/>
<path d="M146.89 66.0601C146.89 66.0601 150.916 66.6837 150.968 70.1374C151.021 73.5911 154.908 79.1786 152.479 83.5514L146.161 84.5231L142.76 72.1335L146.647 65.5742" fill="#108864"/>
<path d="M128.518 78.168L120.496 90.0517L110.5 98.778L108.699 96.3241L116.187 87.2262L124.747 73.8828L128.518 78.168Z" fill="#FFB6B6"/>
<path d="M109.359 100.494C110.647 99.1416 111.04 97.4251 110.237 96.6603C109.434 95.8955 107.738 96.372 106.45 97.7247C105.162 99.0773 104.768 100.794 105.572 101.559C106.375 102.323 108.07 101.847 109.359 100.494Z" fill="#FFB6B6"/>
<path d="M132.328 63.1664C132.328 63.1664 135.351 65.8963 133.5 68.8124C131.648 71.7285 131.832 78.5326 127.4 80.8551L121.586 78.2015C122.076 73.4107 122.361 68.4436 125.542 65.9775L132.392 62.627" fill="#108864"/>
<path d="M135.904 58.4994C139.242 58.4994 141.949 55.7936 141.949 52.4558C141.949 49.1179 139.242 46.4121 135.904 46.4121C132.566 46.4121 129.859 49.1179 129.859 52.4558C129.859 55.7936 132.566 58.4994 135.904 58.4994Z" fill="#FFB6B6"/>
<path d="M140.344 57.4219C140.677 57.4786 141.068 56.6717 141.441 55.8859C142.223 54.2407 142.72 53.1949 142.758 51.7166C142.791 50.4567 142.44 50.7874 142.1 47.9863C141.988 47.0624 140.409 47.0642 140.088 46.6255C139.545 45.8845 140.378 45.5789 139.027 45.1337C136.498 44.2999 135.355 45.5952 133.748 45.7068C133.708 45.7096 132.911 46.4882 132.467 46.5284C131.688 46.599 130.564 46.4776 130.06 45.2907C129.589 44.181 129.277 47.4239 129.698 47.8253C130.055 48.166 130.672 49.0213 130.688 49.0835C130.705 49.1539 129.221 47.5098 128.973 48.1873C128.795 48.6749 129.356 51.1835 129.81 51.2778C130.189 51.3566 131.116 50.107 130.907 50.6195C130.422 51.8081 133.34 52.5665 136.833 50.1806C136.957 50.096 136.84 50.231 137.272 51.2778C137.817 52.5981 137.94 52.6696 137.93 53.0332C137.909 53.8204 137.318 54.0522 137.491 54.5693C137.631 54.988 138.178 55.3122 138.588 55.2276C139.052 55.132 139.131 54.5591 139.466 54.5693C139.753 54.578 140.094 55.0105 140.125 55.447C140.189 56.3666 138.827 56.6195 138.588 57.8607C138.454 58.5612 140.038 57.3697 140.344 57.4219Z" fill="#2F2E41"/>
<path d="M92.4925 165.533H40.5538C32.7636 165.533 26.4258 159.196 26.4258 151.407V14.1258C26.4258 6.33686 32.7636 0 40.5538 0H92.4925C100.283 0 106.62 6.33686 106.62 14.1258C107.587 69.2537 109.236 130.988 106.62 151.407C106.62 159.196 100.283 165.533 92.4925 165.533Z" fill="#3F3D56"/>
<path d="M107.344 50.4961C107.014 50.4961 106.746 50.7641 106.746 51.0937V70.2166C106.746 70.5462 107.014 70.8142 107.344 70.8142C107.673 70.8142 107.941 70.5462 107.941 70.2166V51.0937C107.941 50.7641 107.673 50.4961 107.344 50.4961Z" fill="#3F3D56"/>
<path d="M105.277 14.1262V151.405C105.277 158.184 99.999 163.73 93.3258 164.16H93.3228C93.2242 164.166 93.1256 164.172 93.024 164.175C92.8477 164.184 92.6714 164.187 92.4921 164.187C92.4921 164.187 91.8346 164.139 90.6333 164.05C89.42 163.96 87.6538 163.826 85.4514 163.649C84.7909 163.599 84.0946 163.542 83.3595 163.482C81.8952 163.363 80.2874 163.231 78.5631 163.082C77.8757 163.025 77.1645 162.962 76.4383 162.899C72.7267 162.58 68.5698 162.206 64.1858 161.782C63.4447 161.713 62.6976 161.642 61.9445 161.567C61.7473 161.546 27.7715 153.006 27.7715 151.405V14.1262C27.7715 7.06569 33.4943 1.34375 40.5559 1.34375H48.1883C49.4076 1.34375 50.3878 2.29392 50.4924 3.51002C50.5014 3.5907 50.5103 3.67136 50.5253 3.75204C50.7464 4.97412 51.8671 5.82568 53.1102 5.82568H79.9378C81.1809 5.82568 82.3016 4.97412 82.5227 3.75204C82.5377 3.67136 82.5466 3.5907 82.5556 3.51002C82.6602 2.29392 83.6404 1.34375 84.8597 1.34375H92.4921C99.5537 1.34375 105.277 7.06569 105.277 14.1262Z" fill="white"/>
<path d="M26.127 36.1543C25.7973 36.1543 25.5293 36.4223 25.5293 36.7519V41.5326C25.5293 41.8622 25.7974 42.1302 26.127 42.1302C26.4566 42.1302 26.7247 41.8622 26.7247 41.5326V36.7519C26.7247 36.4223 26.4566 36.1543 26.127 36.1543Z" fill="#3F3D56"/>
<path d="M26.127 50.4961C25.7973 50.4961 25.5293 50.7641 25.5293 51.0937V60.3563C25.5293 60.6859 25.7974 60.9539 26.127 60.9539C26.4566 60.9539 26.7247 60.6859 26.7247 60.3563V51.0937C26.7247 50.7641 26.4566 50.4961 26.127 50.4961Z" fill="#3F3D56"/>
<path d="M26.127 63.6426C25.7973 63.6426 25.5293 63.9106 25.5293 64.2402V73.5028C25.5293 73.8324 25.7974 74.1004 26.127 74.1004C26.4566 74.1004 26.7247 73.8324 26.7247 73.5028V64.2402C26.7247 63.9106 26.4566 63.6426 26.127 63.6426Z" fill="#3F3D56"/>
<path d="M47.98 3.43555H36.5498C36.4878 3.43555 36.4375 3.48583 36.4375 3.54787V4.81721C36.4375 4.87924 36.4878 4.92953 36.5498 4.92953H47.98C48.042 4.92953 48.0923 4.87924 48.0923 4.81721V3.54787C48.0923 3.48583 48.042 3.43555 47.98 3.43555Z" fill="#E6E6E6"/>
<path d="M86.7481 4.92943C87.4083 4.92943 87.9435 4.39433 87.9435 3.73424C87.9435 3.07416 87.4083 2.53906 86.7481 2.53906C86.0879 2.53906 85.5527 3.07416 85.5527 3.73424C85.5527 4.39433 86.0879 4.92943 86.7481 4.92943Z" fill="#E6E6E6"/>
<path d="M90.0352 4.92943C90.6954 4.92943 91.2306 4.39433 91.2306 3.73424C91.2306 3.07416 90.6954 2.53906 90.0352 2.53906C89.375 2.53906 88.8398 3.07416 88.8398 3.73424C88.8398 4.39433 89.375 4.92943 90.0352 4.92943Z" fill="#E6E6E6"/>
<path d="M93.3223 4.92943C93.9825 4.92943 94.5177 4.39433 94.5177 3.73424C94.5177 3.07416 93.9825 2.53906 93.3223 2.53906C92.6621 2.53906 92.127 3.07416 92.127 3.73424C92.127 4.39433 92.6621 4.92943 93.3223 4.92943Z" fill="#E6E6E6"/>
<path d="M93.702 109.972C93.702 96.3485 82.1859 88.8543 69.0311 85.3047C52.1656 80.7539 39.8135 89.9627 44.3603 109.972C47.379 123.256 62.7017 143.082 69.0311 131.018C76.2738 117.213 93.702 123.595 93.702 109.972Z" fill="#F2F2F2"/>
<path d="M60.5526 107.54L57.5723 106.129C58.7947 107.835 59.848 110.498 60.4119 112.618C61.3667 110.644 62.9058 108.228 64.4293 106.784L61.2794 107.595C63.2203 98.0836 70.5207 91.2556 78.8806 91.2556L78.999 90.9121C70.2668 90.9121 62.5343 97.6454 60.5526 107.54Z" fill="#3F3D56"/>
<path d="M74.2696 122.031H55.4388C54.6401 122.031 53.9902 121.382 53.9902 120.583C53.9902 119.784 54.6401 119.135 55.4388 119.135H74.2696C75.0684 119.135 75.7182 119.784 75.7182 120.583C75.7182 121.382 75.0684 122.031 74.2696 122.031Z" fill="#E8452E"/>
<path d="M91.8724 46.9698V85.3499C91.8724 88.744 89.1107 91.5052 85.7161 91.5052H47.3301C43.9354 91.5052 41.1738 88.744 41.1738 85.3499V46.9698C41.1738 43.5756 43.9354 40.8145 47.3301 40.8145H85.7161C89.1107 40.8145 91.8724 43.5756 91.8724 46.9698ZM85.7161 90.781C88.7161 90.781 91.1481 88.3494 91.1481 85.3499V66.0002C91.1481 52.4904 80.1946 41.5386 66.6828 41.5386H47.3301C44.3301 41.5386 41.8981 43.9702 41.8981 46.9698V85.3499C41.8981 88.3494 44.3301 90.781 47.3301 90.781H85.7161Z" fill="#3F3D56"/>
<path d="M71.6328 56.4904H59.2405C58.928 56.4904 58.6738 56.2362 58.6738 55.9239C58.6738 55.6115 58.928 55.3574 59.2405 55.3574H71.6328C71.9453 55.3574 72.1994 55.6115 72.1994 55.9239C72.1994 56.2362 71.9453 56.4904 71.6328 56.4904Z" fill="#3F3D56"/>
<path d="M71.6328 68.5705H59.2405C58.928 68.5705 58.6738 68.3163 58.6738 68.0039C58.6738 67.6916 58.928 67.4375 59.2405 67.4375H71.6328C71.9453 67.4375 72.1994 67.6916 72.1994 68.0039C72.1994 68.3163 71.9453 68.5705 71.6328 68.5705Z" fill="#3F3D56"/>
<path d="M65.4766 85.2267H53.0842C52.7718 85.2267 52.5176 84.9726 52.5176 84.6602C52.5176 84.3478 52.7718 84.0938 53.0842 84.0938H65.4766C65.789 84.0938 66.0431 84.3478 66.0431 84.6602C66.0431 84.9726 65.789 85.2267 65.4766 85.2267Z" fill="#3F3D56"/>
<path d="M78.2822 62.5353H52.5901C52.2776 62.5353 52.0234 62.2811 52.0234 61.9688C52.0234 61.6564 52.2777 61.4023 52.5901 61.4023H78.2822C78.5947 61.4023 78.8487 61.6564 78.8487 61.9688C78.8487 62.2811 78.5947 62.5353 78.2822 62.5353Z" fill="#3F3D56"/>
</svg>
