<svg width="192" height="161" viewBox="0 0 192 161" fill="none" xmlns="http://www.w3.org/2000/svg">
<g clip-path="url(#clip0_3619_20394)">
<path d="M124.701 154.442L121.164 155.242L116.377 142.054L121.598 140.873L124.701 154.442Z" fill="#FFB6B6"/>
<path d="M125.667 158.084L114.79 160.545L114.759 160.409C114.503 159.292 114.704 158.12 115.317 157.151C115.931 156.181 116.906 155.494 118.029 155.24L118.029 155.24L119.673 153.291L123.723 153.951L124.672 153.736L125.667 158.084Z" fill="#2F2E41"/>
<path d="M181.762 90.1602L183.706 93.2056L172.82 102.115L169.95 97.62L181.762 90.1602Z" fill="#FFB6B6"/>
<path d="M184.888 88.0352L190.868 97.4006L190.749 97.4758C189.777 98.0898 188.599 98.2945 187.476 98.0451C186.352 97.7957 185.373 97.1124 184.756 96.1457L184.756 96.1455L182.359 95.2591L181.626 91.2429L181.104 90.4254L184.888 88.0352Z" fill="#2F2E41"/>
<path d="M69.0103 57.599L68.1367 52.5629L81.4185 46.598L84.2869 41.5473C84.1942 41.1041 84.2266 40.644 84.3803 40.2179C84.5341 39.7919 84.8033 39.4164 85.1581 39.1329C85.513 38.8494 85.9397 38.669 86.3912 38.6116C86.8427 38.5542 87.3014 38.622 87.7165 38.8076C88.1317 38.9932 88.4872 39.2893 88.7438 39.6631C89.0003 40.037 89.148 40.4742 89.1705 40.9263C89.193 41.3784 89.0893 41.828 88.871 42.2252C88.6528 42.6224 88.3283 42.9519 87.9336 43.1773L83.2152 50.4324L69.0103 57.599Z" fill="#A0616A"/>
<path d="M64.9727 53.482L70.9538 50.4434L72.5371 56.3561L68.3826 59.4189L64.9727 53.482Z" fill="#4DCDD4"/>
<path d="M51.5516 153.985L55.168 153.985L56.8884 140.111L51.5508 140.112L51.5516 153.985Z" fill="#A0616A"/>
<path d="M56.3717 154.309V151.871L55.4209 151.929L51.5508 152.157L50.655 152.212L49.9703 160.378L49.9336 160.816H52.5015L52.584 160.381L52.957 158.405L53.92 160.381L54.1309 160.816H60.9389C61.344 160.813 61.7318 160.652 62.0179 160.367C62.3041 160.082 62.4656 159.696 62.4674 159.293C62.7548 157.958 57.0931 155.073 56.3717 154.309Z" fill="#2F2E41"/>
<path d="M8.62234 98.9277L7.7793 102.426L20.9431 107.324L22.1872 102.162L8.62234 98.9277Z" fill="#A0616A"/>
<path d="M7.46872 103.513L9.85288 104.082L10.0181 103.149L10.6975 99.3525L10.8528 98.4735L3.02764 95.9071L2.60811 95.7695L2.00938 98.253L2.41524 98.4343L4.26058 99.2557L2.10375 99.7263L1.62946 99.8289L0.0421161 106.413C-0.0498483 106.806 0.0175433 107.218 0.22967 107.562C0.441797 107.905 0.781523 108.151 1.17508 108.247C2.41312 108.836 6.55434 104.033 7.46872 103.513Z" fill="#2F2E41"/>
<path d="M57.1437 64.1974L52.4887 62.0332L43.2058 73.2061L37.5514 74.6283C37.1459 74.4228 36.6911 74.3327 36.2373 74.368C35.7836 74.4034 35.3484 74.5627 34.98 74.8286C34.6116 75.0944 34.3243 75.4564 34.1497 75.8744C33.9752 76.2925 33.9202 76.7504 33.9909 77.1976C34.0616 77.6448 34.2552 78.0639 34.5503 78.4085C34.8454 78.7531 35.2306 79.0099 35.6632 79.1505C36.0959 79.2911 36.5592 79.31 37.0019 79.2052C37.4447 79.1003 37.8498 78.8758 38.1723 78.5564L46.4521 75.9395L57.1437 64.1974Z" fill="#A0616A"/>
<path d="M123.138 22.8376C122.152 22.8376 121.187 22.5466 120.367 22.0014C119.546 21.4562 118.907 20.6812 118.529 19.7746C118.152 18.8679 118.053 17.8703 118.245 16.9078C118.438 15.9453 118.913 15.0612 119.611 14.3673C120.308 13.6734 121.197 13.2009 122.165 13.0094C123.133 12.818 124.136 12.9162 125.047 13.2918C125.959 13.6673 126.738 14.3033 127.286 15.1192C127.835 15.9352 128.127 16.8945 128.127 17.8758C128.126 19.1913 127.6 20.4525 126.664 21.3827C125.729 22.3129 124.461 22.8361 123.138 22.8376ZM123.138 13.4835C122.265 13.4835 121.411 13.7411 120.685 14.2237C119.958 14.7064 119.392 15.3923 119.058 16.1949C118.724 16.9975 118.636 17.8807 118.807 18.7327C118.977 19.5848 119.398 20.3674 120.015 20.9817C120.633 21.596 121.42 22.0143 122.277 22.1838C123.133 22.3532 124.021 22.2663 124.828 21.9338C125.635 21.6014 126.325 21.0384 126.81 20.3161C127.296 19.5937 127.555 18.7445 127.555 17.8758C127.553 16.7113 127.088 15.5949 126.26 14.7714C125.432 13.948 124.309 13.4848 123.138 13.4835Z" fill="#248824"/>
<path d="M122.786 19.7444C122.776 19.7444 122.766 19.7441 122.756 19.7436C122.668 19.7394 122.581 19.7161 122.502 19.6754C122.424 19.6348 122.355 19.5777 122.3 19.508L121.514 18.5032C121.465 18.4398 121.428 18.3672 121.407 18.2897C121.385 18.2122 121.379 18.1313 121.39 18.0516C121.4 17.9718 121.425 17.8948 121.465 17.8249C121.505 17.7551 121.559 17.6937 121.622 17.6444L121.651 17.6225C121.714 17.5731 121.787 17.5367 121.865 17.5154C121.943 17.494 122.025 17.4882 122.105 17.4982C122.185 17.5081 122.262 17.5337 122.333 17.5735C122.403 17.6132 122.465 17.6664 122.514 17.7298C122.554 17.7805 122.604 17.8221 122.662 17.8517C122.719 17.8813 122.782 17.8982 122.846 17.9014C122.911 17.9045 122.975 17.8937 123.035 17.8698C123.095 17.8459 123.149 17.8094 123.194 17.7628L124.79 16.0873C124.902 15.9697 125.056 15.9011 125.22 15.8967C125.383 15.8923 125.541 15.9524 125.659 16.0638L125.686 16.0886C125.744 16.1439 125.791 16.2101 125.824 16.2835C125.857 16.3569 125.875 16.436 125.878 16.5163C125.88 16.5967 125.866 16.6767 125.837 16.7517C125.808 16.8268 125.765 16.8954 125.709 16.9537L123.233 19.5533C123.175 19.6137 123.106 19.6618 123.029 19.6946C122.953 19.7275 122.87 19.7444 122.786 19.7444Z" fill="#248824"/>
<path d="M98.233 82.9098C97.2463 82.9098 96.2818 82.6188 95.4614 82.0736C94.6409 81.5284 94.0015 80.7535 93.6239 79.8469C93.2463 78.9402 93.1475 77.9426 93.34 76.9801C93.5325 76.0176 94.0077 75.1335 94.7054 74.4396C95.4031 73.7457 96.292 73.2731 97.2598 73.0817C98.2275 72.8902 99.2306 72.9885 100.142 73.364C101.054 73.7396 101.833 74.3755 102.381 75.1915C102.929 76.0074 103.222 76.9667 103.222 77.9481C103.22 79.2636 102.694 80.5248 101.759 81.4549C100.824 82.3851 99.5557 82.9084 98.233 82.9098ZM98.233 73.5557C97.3596 73.5557 96.5057 73.8133 95.7794 74.296C95.0532 74.7786 94.4871 75.4646 94.1528 76.2672C93.8186 77.0698 93.7311 77.953 93.9015 78.805C94.0719 79.657 94.4925 80.4397 95.1102 81.0539C95.7278 81.6682 96.5148 82.0865 97.3715 82.256C98.2282 82.4255 99.1161 82.3385 99.9231 82.0061C100.73 81.6736 101.42 81.1106 101.905 80.3883C102.39 79.666 102.649 78.8168 102.649 77.9481C102.648 76.7836 102.182 75.6671 101.354 74.8437C100.526 74.0202 99.4039 73.5571 98.233 73.5557Z" fill="#248824"/>
<path d="M97.881 79.8167C97.871 79.8167 97.861 79.8164 97.851 79.8159C97.7624 79.8116 97.6758 79.7884 97.5971 79.7477C97.5184 79.707 97.4495 79.6499 97.3951 79.5803L96.6092 78.5754C96.5596 78.512 96.523 78.4395 96.5015 78.362C96.4801 78.2845 96.4742 78.2036 96.4842 78.1238C96.4942 78.0441 96.52 77.9671 96.5599 77.8972C96.5998 77.8273 96.6532 77.766 96.717 77.7167L96.7453 77.6948C96.8091 77.6454 96.882 77.609 96.96 77.5876C97.0379 77.5663 97.1193 77.5605 97.1995 77.5704C97.2797 77.5804 97.3572 77.606 97.4274 77.6457C97.4977 77.6855 97.5594 77.7386 97.609 77.8021C97.6487 77.8528 97.6989 77.8944 97.7562 77.924C97.8136 77.9536 97.8767 77.9705 97.9412 77.9736C98.0057 77.9768 98.0701 77.966 98.1301 77.9421C98.1901 77.9181 98.2441 77.8816 98.2886 77.835L99.8842 76.1596C99.9966 76.0419 100.151 75.9734 100.314 75.969C100.477 75.9646 100.636 76.0247 100.754 76.1361L100.78 76.1609C100.839 76.2162 100.886 76.2824 100.919 76.3558C100.952 76.4292 100.97 76.5083 100.972 76.5886C100.974 76.669 100.961 76.7489 100.932 76.824C100.903 76.899 100.859 76.9677 100.804 77.026L98.3275 79.6255C98.2701 79.6859 98.2009 79.734 98.1241 79.7669C98.0473 79.7997 97.9646 79.8167 97.881 79.8167Z" fill="#248824"/>
<path d="M43.5573 16.0036C42.5706 16.0036 41.606 15.7126 40.7856 15.1674C39.9652 14.6222 39.3257 13.8472 38.9481 12.9406C38.5705 12.034 38.4717 11.0363 38.6642 10.0738C38.8567 9.11136 39.3319 8.22726 40.0296 7.53335C40.7273 6.83943 41.6162 6.36687 42.584 6.17542C43.5517 5.98397 44.5548 6.08223 45.4664 6.45777C46.378 6.83332 47.1572 7.46927 47.7054 8.28523C48.2536 9.10118 48.5462 10.0605 48.5462 11.0418C48.5447 12.3573 48.0186 13.6185 47.0833 14.5487C46.1481 15.4789 44.88 16.0021 43.5573 16.0036ZM43.5573 6.64949C42.6838 6.64949 41.8299 6.9071 41.1037 7.38974C40.3774 7.87237 39.8113 8.55836 39.4771 9.36096C39.1428 10.1636 39.0553 11.0467 39.2257 11.8987C39.3962 12.7508 39.8168 13.5334 40.4344 14.1477C41.0521 14.762 41.839 15.1803 42.6957 15.3498C43.5524 15.5193 44.4404 15.4323 45.2474 15.0998C46.0543 14.7674 46.7441 14.2044 47.2294 13.4821C47.7146 12.7598 47.9737 11.9106 47.9737 11.0418C47.9723 9.87731 47.5066 8.76087 46.6787 7.93744C45.8507 7.114 44.7282 6.65081 43.5573 6.64949Z" fill="#248824"/>
<path d="M43.2053 12.9104C43.1952 12.9104 43.1852 12.9101 43.1752 12.9096C43.0866 12.9054 43 12.8821 42.9213 12.8415C42.8426 12.8008 42.7737 12.7437 42.7193 12.6741L41.9334 11.6692C41.8838 11.6058 41.8472 11.5332 41.8258 11.4557C41.8043 11.3783 41.7984 11.2973 41.8085 11.2176C41.8185 11.1378 41.8442 11.0608 41.8841 10.991C41.9241 10.9211 41.9775 10.8597 42.0413 10.8104L42.0695 10.7885C42.1333 10.7391 42.2063 10.7027 42.2842 10.6814C42.3621 10.66 42.4435 10.6542 42.5237 10.6642C42.6039 10.6741 42.6814 10.6997 42.7516 10.7395C42.8219 10.7792 42.8836 10.8324 42.9332 10.8959C42.9729 10.9465 43.0231 10.9881 43.0804 11.0177C43.1378 11.0473 43.2009 11.0643 43.2654 11.0674C43.3299 11.0705 43.3944 11.0597 43.4543 11.0358C43.5143 11.0119 43.5683 10.9754 43.6128 10.9288L45.2085 9.25335C45.3208 9.13568 45.4755 9.06713 45.6385 9.06273C45.8016 9.05832 45.9598 9.11841 46.0784 9.22984L46.1046 9.25464C46.1632 9.3099 46.2104 9.37612 46.2433 9.44951C46.2762 9.5229 46.2943 9.60202 46.2965 9.68236C46.2987 9.7627 46.2849 9.84268 46.256 9.91773C46.2271 9.99278 46.1836 10.0614 46.128 10.1198L43.6517 12.7193C43.5943 12.7797 43.5251 12.8278 43.4483 12.8606C43.3715 12.8935 43.2888 12.9104 43.2053 12.9104Z" fill="#248824"/>
<path d="M83.4985 101.357C71.9298 101.357 58.6345 88.5893 46.8715 94.6557C11.2561 113.023 16.1588 82.2882 5.92676 70.8576L6.26268 70.1875C17.5525 80.2555 31.6483 88.4471 47.0261 93.8762C60.9229 98.783 74.9239 101.056 87.5103 100.457L87.5322 101.262C86.203 101.326 84.8584 101.357 83.4985 101.357Z" fill="#F1C21B"/>
<path d="M67.6291 15.032C68.9646 15.032 70.0473 13.5881 70.0473 11.807C70.0473 10.0259 68.9646 8.58203 67.6291 8.58203C66.2936 8.58203 65.2109 10.0259 65.2109 11.807C65.2109 13.5881 66.2936 15.032 67.6291 15.032Z" fill="#FB8572"/>
<path d="M95.559 65.3424C94.4534 66.075 93.3219 64.3314 94.4487 63.6313C95.5542 62.8988 96.6857 64.6424 95.559 65.3424Z" fill="#FFA99C"/>
<path d="M89.1958 6.6424C90.9348 6.6424 92.3447 5.24027 92.3447 3.51066C92.3447 1.78104 90.9348 0.378906 89.1958 0.378906C87.4567 0.378906 86.0469 1.78104 86.0469 3.51066C86.0469 5.24027 87.4567 6.6424 89.1958 6.6424Z" fill="#FF6584"/>
<path d="M82.1232 84.0784C83.8153 84.0784 85.1869 82.7142 85.1869 81.0314C85.1869 79.3486 83.8153 77.9844 82.1232 77.9844C80.4312 77.9844 79.0596 79.3486 79.0596 81.0314C79.0596 82.7142 80.4312 84.0784 82.1232 84.0784Z" fill="#FFA99C"/>
<path d="M52.4506 82.1953C52.4506 82.1953 44.8129 87.1416 46.8325 90.4284C46.9021 90.5417 37.7093 102.617 37.7093 102.617L20.3556 101.521L19.7441 107.298L35.1937 111.748C35.1937 111.748 38.9733 114.51 41.8931 111.467C44.8129 108.424 54.5385 99.1064 54.5385 99.1064L55.0076 117.919L50.1254 143.987L57.4151 143.527L64.5102 117.374L67.1292 87.7497L52.4506 82.1953Z" fill="#2F2E41"/>
<path d="M57.8907 52.5087L54.679 54.9294L51.0182 62.7001L54.5383 67.4548C54.5383 67.4548 57.4994 72.5586 52.7598 77.5013C48.0202 82.444 44.3807 87.723 48.1743 87.5346C51.9679 87.3461 67.3324 95.1183 67.4335 88.7507C67.5346 82.3832 67.7392 77.5013 67.7392 77.5013L71.7674 67.3399C71.7674 67.3399 74.1674 61.2781 72.4824 59.4636C70.7974 57.6491 68.5413 55.3304 68.5413 55.3304L64.4386 51.25H60.7341L57.8907 52.5087Z" fill="#4DCDD4"/>
<path d="M63.8866 37.5788C71.0919 41.6567 65.1767 52.416 57.837 48.5847C50.6319 44.507 56.5471 33.7477 63.8866 37.5788Z" fill="#A0616A"/>
<path d="M67.7396 39.8405C67.2347 40.4936 66.1799 40.1873 64.1143 40.6534C64.1188 39.957 64.0379 39.2627 63.8734 38.5858C63.7197 39.4239 63.3829 40.2182 62.8867 40.9126C61.0931 41.1105 63.2919 46.5298 62.3735 50.5142C61.1902 42.1083 58.7015 44.3106 59.9588 45.9779C60.7637 47.0452 60.2271 50.2474 57.8123 48.6463C53.8281 50.5295 48.1534 41.1747 54.4427 36.7874C54.3304 34.416 56.9835 34.0414 58.6172 34.7705C62.5822 31.833 67.112 35.5969 67.7396 39.8405Z" fill="#2F2E41"/>
<path d="M49.252 33.7066C47.6478 43.5159 39.0495 31.9025 35.0066 41.5559C33.7355 45.0518 35.9164 47.5526 37.296 50.4544C37.6108 52.8391 34.4915 54.049 34.1648 56.2441C34.0739 61.2766 42.2374 60.9686 44.5196 57.7936C46.8645 54.4698 44.0643 50.0104 45.4738 46.4428C47.4548 41.4897 55.5112 41.4529 56.2131 35.6904C54.8538 33.7653 51.1988 31.5604 49.252 33.7066Z" fill="#2F2E41"/>
<path d="M55.7503 34.6634C55.6978 34.6854 55.6453 34.7074 55.5984 34.7321H55.5956C55.5514 34.7541 55.5072 34.776 55.463 34.8008C55.4575 34.8035 55.4548 34.8063 55.4492 34.809C55.3912 34.7541 55.3332 34.6991 55.2725 34.6442C55.2567 34.7337 55.2605 34.8255 55.2835 34.9134L55.2918 34.9464C55.347 35.004 55.405 35.059 55.4658 35.1167C55.5211 35.0755 55.5735 35.0315 55.6288 34.9903C55.6619 34.9628 55.6951 34.9354 55.731 34.9079C55.7365 34.8365 55.7448 34.7541 55.7531 34.6634L55.7503 34.6634ZM57.4131 31.6087C56.1812 31.3285 55.7834 32.93 55.6647 33.7019C55.2172 30.8999 53.3555 31.7818 53.9991 33.6937C54.2043 34.2598 54.5271 34.7764 54.9465 35.2101C55.0045 35.276 55.0681 35.3419 55.1343 35.4079C55.0598 35.7924 55.4354 35.6936 55.9436 35.3392C56.3189 35.0737 56.666 34.7709 56.9794 34.4354C57.9931 33.3778 58.7831 31.963 57.4131 31.6087ZM57.4517 33.1855C57.0717 33.6729 56.6453 34.1228 56.1784 34.5288C56.032 34.6607 55.8829 34.787 55.731 34.9079C55.7282 34.9326 55.7282 34.9546 55.7254 34.9738C55.7148 35.0005 55.7018 35.0262 55.6868 35.0507C55.5321 35.3282 55.3581 35.1771 55.2918 34.9464C55.2863 34.9381 55.278 34.9299 55.2725 34.9216C55.0517 34.6949 54.8597 34.4421 54.7007 34.1689C53.5599 32.202 55.3967 30.8642 55.3056 34.537C55.2888 34.5707 55.2776 34.6069 55.2725 34.6442C55.2567 34.7337 55.2605 34.8255 55.2835 34.9134L55.2918 34.9464C55.347 35.0041 55.405 35.059 55.4658 35.1167C55.5211 35.0755 55.5735 35.0315 55.6288 34.9903C55.6619 34.9628 55.6951 34.9354 55.731 34.9079C55.7365 34.8365 55.7448 34.7541 55.7531 34.6634V34.6607C55.8249 33.9245 56.021 32.6004 56.3828 32.2405C57.1783 31.6334 58.2086 32.29 57.4517 33.1855ZM55.7503 34.6634C55.6978 34.6854 55.6453 34.7074 55.5984 34.7321H55.5956C55.5514 34.7541 55.5072 34.776 55.463 34.8008C55.4575 34.8035 55.4548 34.8063 55.4492 34.809C55.3912 34.7541 55.3332 34.6991 55.2725 34.6442C55.2567 34.7337 55.2605 34.8255 55.2835 34.9134L55.2918 34.9464C55.347 35.004 55.405 35.059 55.4658 35.1167C55.5211 35.0755 55.5735 35.0315 55.6288 34.9903C55.6619 34.9628 55.6951 34.9354 55.731 34.9079C55.7365 34.8365 55.7448 34.7541 55.7531 34.6634L55.7503 34.6634Z" fill="#2F2E41"/>
<path d="M122.348 88.7474L119.687 95.6496L107.203 120.14L118.172 148.629L123.833 147.143L119.167 120.14L132.554 103.963L148.452 114.687C148.452 114.687 155.503 120.161 158.185 114.972C160.867 109.782 178.223 98.7434 178.223 98.7434L173.929 94.1882L153.943 103.491L140.148 84.1797L122.348 88.7474Z" fill="#2F2E41"/>
<path d="M135.775 56.1894L131.395 51.5086L123.88 50.4805L114.673 56.8911L114.766 63.9868L119.317 80.7072C119.317 80.7072 117.583 92.7201 122.426 92.5996C127.268 92.4791 129.908 90.078 131.88 90.5668C133.852 91.0556 142.236 93.1357 142.768 90.9568C143.299 88.7779 146.123 90.3381 145.999 88.2768C145.875 86.2156 138.354 71.3578 138.354 71.3578L140.224 56.4986L135.775 56.1894Z" fill="#F94327"/>
<path d="M163.511 34.6432C163.551 35.0314 163.504 35.4234 163.374 35.7916C163.245 36.1598 163.035 36.4953 162.761 36.7744C162.487 37.0535 162.155 37.2695 161.788 37.4071C161.421 37.5446 161.028 37.6005 160.637 37.5707L150.563 56.625L147.858 52.4957L158.155 34.5126C158.249 33.8625 158.579 33.2691 159.084 32.8451C159.588 32.421 160.231 32.1957 160.892 32.2117C161.552 32.2278 162.183 32.4842 162.666 32.9324C163.149 33.3805 163.45 33.9892 163.511 34.6432Z" fill="#FFB6B6"/>
<path d="M131.798 59.7322C131.798 59.7322 131.398 63.1216 135.235 63.9606C139.071 64.7997 149.701 58.7594 151.443 57.8368C151.989 57.5479 152.729 56.1318 153.489 54.3229C153.83 53.5108 154.175 52.6194 154.508 51.7154C154.7 51.1922 155.623 51.0494 155.805 50.5306C155.985 50.0146 155.425 49.1224 155.588 48.6361C156.364 46.3278 156.914 44.4965 156.914 44.4965L154.372 39.7461C150.815 41.616 148.991 45.7347 147.65 50.4798L131.798 59.7322Z" fill="#F94327"/>
<path d="M86.9922 39.0189C87.0519 39.4045 87.1959 39.7724 87.4141 40.0966C87.6322 40.4209 87.9192 40.6936 88.2548 40.8956C88.5904 41.0976 88.9664 41.224 89.3564 41.2658C89.7464 41.3077 90.1409 41.264 90.5121 41.1378L105.06 57.0784L106.639 52.4074L92.1452 37.5593C91.8907 36.9532 91.4215 36.461 90.8265 36.176C90.2315 35.8909 89.5521 35.8329 88.9169 36.0128C88.2817 36.1927 87.7349 36.5981 87.3802 37.1521C87.0255 37.7062 86.8874 38.3704 86.9922 39.0189Z" fill="#FFB6B6"/>
<path d="M124.01 55.4173C124.01 55.4173 125.25 58.5993 121.747 60.3666C118.243 62.1338 106.433 58.9312 104.513 58.4717C103.912 58.3278 102.839 57.1411 101.649 55.5788C101.114 54.8774 100.556 54.1003 100.006 53.3079C99.6877 52.8493 98.7585 52.9407 98.4521 52.4835C98.1475 52.0289 98.4655 51.0257 98.1849 50.5955C96.8526 48.5539 95.8594 46.9177 95.8594 46.9177L97.1259 41.6855C101.04 42.6108 103.842 46.1445 106.335 50.4047L124.01 55.4173Z" fill="#F94327"/>
<path d="M127.787 49.2899C131.736 49.2899 134.937 46.1063 134.937 42.1792C134.937 38.252 131.736 35.0684 127.787 35.0684C123.839 35.0684 120.638 38.252 120.638 42.1792C120.638 46.1063 123.839 49.2899 127.787 49.2899Z" fill="#FFB6B6"/>
<path d="M135.949 38.1069C135.197 36.9497 133.786 36.1785 132.418 36.3952C132.29 35.5268 131.926 34.7098 131.364 34.0332C130.802 33.3565 130.064 32.8461 129.231 32.5576C128.398 32.2691 127.501 32.2135 126.638 32.3969C125.775 32.5803 124.979 32.9956 124.337 33.5976C124.126 33.4498 123.88 33.3586 123.623 33.3331C123.366 33.3075 123.107 33.3483 122.871 33.4516C122.4 33.6646 121.99 33.9916 121.679 34.4028C120.894 35.3765 120.389 36.5437 120.218 37.7802C120.047 39.0167 120.216 40.2761 120.708 41.4245C120.541 40.8199 121.15 40.2512 121.765 40.1155C122.381 39.9799 123.027 40.1082 123.651 40.0199C124.451 39.9066 125.17 39.4451 125.971 39.3412C126.65 39.2973 127.332 39.3844 127.978 39.5977C128.624 39.8111 129.305 39.902 129.985 39.8657C130.659 39.7861 131.528 42.3278 131.516 44.118C131.514 44.4573 131.584 44.8929 131.917 44.9648C132.328 45.0535 132.566 44.49 132.957 44.3364C133.137 44.2851 133.33 44.3053 133.495 44.3928C133.661 44.4802 133.785 44.6282 133.843 44.8054C133.893 44.9855 133.898 45.1748 133.859 45.3573C133.82 45.5399 133.737 45.7105 133.618 45.8551C133.378 46.1415 133.093 46.3875 132.774 46.5835L132.935 46.7167C133.088 46.8772 133.292 46.9799 133.512 47.0072C133.733 47.0344 133.956 46.9845 134.144 46.866C134.513 46.6175 134.811 46.2791 135.012 45.8832C135.766 44.7232 136.305 43.4383 136.604 42.0893C136.855 40.7344 136.701 39.2641 135.949 38.1069Z" fill="#2F2E41"/>
<path d="M188.842 66.1525C179.62 73.0992 161.271 70.9046 155.576 82.8039C138.335 118.832 123.585 91.3873 108.49 88.4193L108.351 87.6834C123.462 88.93 139.672 86.9958 155.226 82.0897C169.283 77.6565 181.824 71.0615 191.494 63.0254L192 63.6544C190.979 64.5034 189.927 65.3361 188.842 66.1525Z" fill="#F1C21B"/>
</g>
<defs>
<clipPath id="clip0_3619_20394">
<rect width="192" height="161" fill="white"/>
</clipPath>
</defs>
</svg>
